<?xml version="1.0" encoding="UTF-8" ?>
<!DOCTYPE svg PUBLIC "-//W3C//DTD SVG 1.1//EN" "http://www.w3.org/Graphics/SVG/1.1/DTD/svg11.dtd">
<svg width="284pt" height="332pt" viewBox="0 0 284 332" version="1.1" xmlns="http://www.w3.org/2000/svg">
<g id="#efefefff">
<path fill="#efefef" opacity="1.00" d=" M 139.13 5.08 C 140.38 5.19 141.64 5.28 142.89 5.36 C 142.92 5.80 142.97 6.69 142.99 7.13 C 143.50 6.86 144.53 6.32 145.04 6.05 L 144.90 7.48 C 145.43 7.32 146.50 7.00 147.03 6.84 L 145.59 9.31 C 146.50 8.91 148.31 8.10 149.21 7.70 L 147.79 10.18 L 150.00 9.15 L 150.00 10.44 C 150.50 10.29 151.48 9.99 151.98 9.84 L 150.60 12.33 C 151.49 11.92 153.26 11.09 154.14 10.68 L 152.59 13.36 L 155.03 12.20 L 154.98 13.42 C 155.48 13.28 156.47 12.99 156.97 12.85 L 155.60 15.32 C 156.48 14.91 158.23 14.09 159.11 13.68 L 157.60 16.33 C 158.50 15.91 160.29 15.08 161.18 14.66 L 159.58 17.37 L 161.99 16.21 C 162.03 16.66 162.12 17.55 162.16 18.00 L 163.01 17.25 C 163.73 17.52 165.16 18.05 165.87 18.32 L 164.53 20.34 C 165.40 19.93 167.16 19.11 168.04 18.70 L 166.62 21.34 C 167.46 20.93 169.14 20.11 169.98 19.70 L 168.66 22.32 C 169.50 21.91 171.20 21.11 172.05 20.70 L 170.74 23.29 C 171.30 22.99 172.41 22.40 172.97 22.11 C 174.05 23.25 175.36 23.63 176.90 23.26 L 175.57 25.32 C 176.46 24.92 178.23 24.10 179.12 23.70 L 177.59 26.34 C 178.45 25.93 180.17 25.09 181.02 24.67 L 179.63 27.41 C 180.32 27.01 181.72 26.22 182.41 25.82 C 182.60 26.39 182.97 27.52 183.16 28.09 C 183.89 27.73 185.35 27.02 186.08 26.67 L 184.65 29.15 C 185.71 28.82 187.84 28.17 188.90 27.85 L 187.68 30.40 C 188.37 30.01 189.74 29.24 190.43 28.85 C 190.61 29.42 190.97 30.55 191.15 31.12 C 191.83 30.76 193.20 30.06 193.88 29.71 L 193.21 32.27 C 194.16 31.92 196.06 31.22 197.01 30.87 L 195.88 33.28 C 197.21 32.89 198.51 32.41 199.81 31.93 C 199.73 32.48 199.57 33.58 199.49 34.13 C 201.04 33.67 202.59 33.22 204.16 32.82 L 202.49 35.18 C 203.65 34.84 205.97 34.16 207.13 33.82 L 205.56 36.10 C 207.38 35.58 209.23 35.18 211.11 34.90 L 209.49 37.08 C 211.22 36.63 212.96 36.26 214.72 35.96 L 213.63 38.05 C 215.46 37.62 217.30 37.23 219.16 36.87 C 218.76 37.44 217.97 38.58 217.57 39.16 C 219.77 38.67 221.98 38.25 224.21 37.93 L 222.41 40.04 C 224.23 39.65 226.08 39.34 227.94 39.10 C 227.89 39.59 227.80 40.55 227.75 41.03 C 229.60 40.45 231.51 40.17 233.42 39.89 C 232.73 40.46 231.35 41.60 230.66 42.18 C 231.66 42.00 233.68 41.64 234.68 41.47 C 236.19 41.33 237.69 41.20 239.20 41.04 C 238.76 41.56 237.88 42.61 237.44 43.14 C 240.18 42.44 242.98 42.25 245.80 42.16 L 244.46 44.05 C 247.66 43.11 251.00 43.36 254.29 43.25 C 254.32 43.53 254.40 44.09 254.44 44.37 C 260.63 44.37 266.82 44.41 273.01 44.28 C 273.31 44.73 273.92 45.62 274.22 46.06 C 274.92 45.70 276.33 44.98 277.03 44.62 L 275.73 47.24 L 277.78 46.44 C 277.54 70.80 277.70 95.17 277.63 119.54 C 277.38 119.48 276.88 119.37 276.63 119.32 C 276.62 126.49 276.55 133.66 276.72 140.83 L 275.66 140.24 C 275.09 144.42 276.77 149.13 274.75 152.96 C 274.55 156.06 274.55 159.18 274.90 162.27 L 272.96 160.19 C 273.94 163.44 273.54 166.86 273.80 170.20 L 272.53 168.62 C 272.60 171.15 272.63 173.70 272.92 176.22 C 272.43 175.75 271.44 174.81 270.94 174.34 C 271.72 176.83 271.69 179.45 271.86 182.02 L 269.97 180.35 C 270.08 182.24 271.95 185.49 269.43 186.65 C 269.60 188.14 269.80 189.63 270.02 191.12 C 265.97 186.31 269.20 193.42 269.04 195.11 L 266.93 193.46 C 267.35 195.34 267.73 197.24 268.06 199.15 L 265.98 197.44 C 266.37 199.35 266.69 201.26 266.95 203.20 L 265.23 201.51 C 265.43 202.71 265.83 205.09 266.03 206.28 L 264.03 204.59 C 264.31 205.74 264.86 208.06 265.14 209.22 L 262.93 207.45 C 264.10 209.51 263.98 211.26 262.58 212.70 C 262.62 213.19 262.69 214.17 262.73 214.66 L 261.23 214.48 C 261.47 215.15 261.96 216.48 262.20 217.15 L 259.89 215.61 C 260.15 216.69 260.68 218.87 260.94 219.95 L 259.15 219.27 C 259.38 219.93 259.84 221.24 260.07 221.89 L 258.18 221.51 C 258.44 222.15 258.96 223.43 259.23 224.08 L 256.65 222.58 C 257.05 223.45 257.85 225.20 258.25 226.07 L 255.65 224.60 C 256.05 225.47 256.84 227.20 257.24 228.07 L 254.66 226.59 C 255.06 227.46 255.86 229.20 256.26 230.06 L 253.65 228.60 C 254.05 229.48 254.86 231.23 255.26 232.10 L 252.65 230.59 C 252.96 231.25 253.57 232.57 253.88 233.24 C 252.91 234.30 251.45 235.19 251.58 236.85 L 249.67 235.56 C 250.06 236.44 250.85 238.22 251.24 239.10 L 248.93 237.65 C 249.45 239.02 249.54 240.41 249.21 241.82 L 246.65 240.68 C 247.00 241.42 247.70 242.90 248.05 243.64 C 247.21 243.74 245.51 243.93 244.67 244.03 C 245.04 244.64 245.77 245.88 246.14 246.50 C 245.27 246.61 243.54 246.85 242.67 246.97 L 243.79 248.96 L 242.94 249.07 C 242.29 250.31 242.26 253.42 239.69 250.91 L 240.80 253.00 L 239.93 253.01 C 239.31 254.33 239.29 257.70 236.61 254.82 L 238.21 257.17 L 235.64 255.61 L 236.71 257.98 L 235.94 258.09 C 235.44 259.41 234.67 260.60 233.90 261.77 L 231.58 260.60 L 233.16 263.19 L 230.64 261.54 L 231.95 264.37 L 230.31 262.81 C 231.15 265.02 228.25 265.99 228.52 268.15 L 227.04 267.03 L 227.89 268.39 C 226.57 269.66 225.27 270.95 224.00 272.26 L 224.47 270.43 L 222.84 271.28 L 224.42 273.20 L 221.51 271.57 L 223.17 274.15 L 220.52 272.49 L 222.14 275.14 L 219.49 273.52 L 221.12 276.12 L 218.50 274.50 L 220.14 277.15 L 217.53 275.48 L 219.13 278.18 L 216.56 276.53 L 218.04 279.30 L 215.73 277.69 L 216.73 279.62 C 215.24 280.70 214.18 282.75 212.13 282.74 L 213.27 284.23 L 211.07 283.13 L 212.20 285.17 L 210.26 284.37 C 210.16 284.74 209.96 285.47 209.86 285.84 L 208.56 284.89 C 208.15 285.29 207.33 286.09 206.92 286.50 L 208.14 288.17 L 205.93 287.25 L 207.21 289.20 L 205.21 288.19 L 206.18 290.20 L 204.31 289.18 L 204.59 290.99 C 203.84 290.66 202.35 289.98 201.60 289.64 L 203.14 292.33 L 201.08 290.74 C 200.96 291.57 200.70 293.25 200.57 294.09 L 199.19 293.29 L 198.99 294.56 C 196.59 292.83 196.80 295.54 196.49 297.15 L 195.35 296.23 C 195.22 296.61 194.96 297.37 194.83 297.75 L 193.06 296.79 C 192.93 297.62 192.68 299.29 192.55 300.12 C 191.93 299.78 190.70 299.12 190.09 298.78 C 189.95 299.62 189.67 301.29 189.54 302.12 C 188.92 301.79 187.68 301.12 187.06 300.79 C 186.94 301.62 186.70 303.28 186.57 304.11 C 185.94 303.78 184.68 303.11 184.06 302.78 C 183.94 303.59 183.72 305.22 183.61 306.04 C 182.85 305.69 181.33 304.99 180.57 304.64 L 181.87 306.62 C 180.09 306.06 179.36 307.93 178.27 308.83 C 177.62 308.54 176.32 307.96 175.67 307.67 L 176.90 310.21 L 174.95 309.11 L 176.24 311.21 C 175.59 310.95 174.30 310.43 173.65 310.17 L 173.69 312.05 C 172.94 311.70 171.45 311.01 170.70 310.66 L 171.86 313.11 L 170.03 312.37 L 170.26 313.62 C 169.76 313.55 168.76 313.40 168.26 313.33 L 169.08 315.08 C 168.47 314.84 167.25 314.38 166.64 314.14 L 166.70 316.02 C 165.94 315.68 164.43 315.01 163.67 314.67 L 164.86 317.19 L 162.93 316.27 C 162.84 316.67 162.66 317.47 162.57 317.86 L 161.03 317.10 L 162.16 319.13 C 161.48 318.87 160.11 318.34 159.43 318.07 L 159.97 319.94 C 159.20 319.69 157.67 319.18 156.91 318.92 L 157.98 321.08 C 157.16 320.73 155.50 320.04 154.68 319.69 L 155.86 322.19 C 155.14 321.83 153.71 321.12 153.00 320.76 C 152.91 321.60 152.73 323.28 152.64 324.12 C 152.06 323.81 150.89 323.19 150.31 322.88 L 151.06 325.05 C 150.37 324.78 149.00 324.24 148.31 323.97 L 149.02 325.98 C 148.38 325.75 147.10 325.29 146.46 325.06 L 146.96 326.87 C 146.36 326.70 145.14 326.36 144.54 326.19 L 144.83 327.96 C 144.23 327.73 143.05 327.29 142.45 327.07 L 143.09 328.50 C 141.79 328.52 139.18 328.57 137.88 328.59 L 138.63 327.03 C 137.98 327.27 136.69 327.76 136.05 328.01 L 136.55 326.11 C 135.90 326.34 134.61 326.81 133.96 327.04 L 134.67 324.96 C 134.09 325.25 132.95 325.83 132.37 326.12 C 132.28 325.28 132.09 323.61 132.00 322.77 C 131.29 323.13 129.88 323.85 129.17 324.20 L 130.30 321.68 C 129.54 322.01 128.03 322.68 127.28 323.01 L 127.44 321.24 C 126.84 321.40 125.62 321.71 125.01 321.86 L 125.55 319.95 C 125.00 320.25 123.91 320.84 123.37 321.13 C 123.28 320.30 123.10 318.63 123.00 317.79 C 122.25 318.16 120.76 318.89 120.01 319.26 L 121.35 316.70 C 120.48 317.06 118.73 317.77 117.86 318.12 L 118.82 316.33 L 117.04 316.91 L 118.07 314.90 C 117.33 315.22 115.85 315.86 115.11 316.17 L 116.33 313.68 C 115.67 313.97 114.35 314.56 113.69 314.85 C 112.63 313.95 111.92 312.13 110.16 312.60 L 111.41 310.64 C 110.66 310.99 109.14 311.69 108.39 312.03 C 108.28 311.23 108.06 309.62 107.95 308.82 C 107.23 309.18 105.79 309.90 105.07 310.26 L 106.32 307.64 C 105.57 308.01 104.08 308.73 103.34 309.09 C 103.26 308.31 103.11 306.75 103.03 305.97 C 101.44 307.18 98.07 306.68 99.85 303.81 C 99.15 304.17 97.75 304.88 97.05 305.23 L 98.23 302.79 C 97.65 303.02 96.50 303.49 95.92 303.72 C 95.62 303.00 95.02 301.54 94.72 300.82 L 93.13 301.76 C 93.05 301.42 92.88 300.72 92.79 300.38 L 91.02 301.22 L 92.37 298.64 C 91.66 298.98 90.23 299.66 89.52 300.00 C 89.36 299.19 89.06 297.59 88.91 296.79 C 88.28 297.12 87.03 297.80 86.41 298.14 C 86.29 297.30 86.07 295.63 85.95 294.79 L 84.14 295.76 C 84.07 295.50 83.94 294.99 83.87 294.74 C 83.21 294.57 81.89 294.25 81.23 294.08 C 81.50 293.48 82.05 292.28 82.32 291.68 C 81.53 292.03 79.96 292.74 79.17 293.09 L 79.75 291.04 L 78.46 292.13 C 78.33 291.29 78.08 289.62 77.95 288.78 L 76.14 289.76 C 76.05 289.42 75.88 288.75 75.80 288.42 L 73.68 289.18 L 75.00 287.62 C 72.53 287.83 71.91 286.82 73.16 284.61 L 70.85 286.20 L 72.39 283.65 L 70.46 284.53 C 65.45 280.91 61.16 276.45 56.84 272.03 C 56.67 271.58 56.33 270.69 56.17 270.24 C 55.28 269.36 54.36 268.51 53.44 267.68 L 54.33 265.58 L 51.86 267.16 L 53.42 264.61 L 51.12 265.73 C 50.36 264.59 49.46 263.51 49.05 262.18 C 48.85 262.10 48.44 261.93 48.24 261.85 L 49.21 260.04 L 47.98 259.97 L 48.07 258.93 C 47.52 259.12 46.43 259.52 45.88 259.71 C 45.36 258.60 44.93 257.46 44.43 256.35 L 45.11 255.54 C 44.72 255.14 43.93 254.35 43.54 253.95 L 41.39 255.23 L 42.76 253.02 L 40.98 253.71 C 41.32 252.93 42.00 251.36 42.34 250.57 L 39.82 252.15 L 41.33 249.69 L 38.83 250.89 C 38.74 249.61 38.73 248.33 38.79 247.06 C 38.11 246.84 36.76 246.41 36.08 246.19 C 36.37 245.65 36.95 244.59 37.23 244.06 C 36.40 243.94 34.73 243.72 33.90 243.60 C 34.27 242.88 34.99 241.43 35.36 240.70 L 32.79 241.78 C 32.72 240.44 32.72 239.10 32.78 237.77 L 30.71 239.16 C 31.04 238.48 31.70 237.12 32.04 236.44 C 29.99 235.34 27.28 233.72 28.64 230.94 L 26.80 232.16 C 27.16 231.28 27.86 229.52 28.22 228.64 L 25.76 230.18 C 26.15 229.27 26.94 227.45 27.33 226.55 L 24.72 228.17 C 25.13 227.26 25.94 225.44 26.34 224.52 L 23.75 226.17 C 24.02 225.48 24.56 224.10 24.83 223.41 L 22.96 224.03 C 23.25 222.95 23.82 220.80 24.11 219.72 L 21.82 220.98 C 22.19 220.13 22.93 218.41 23.30 217.55 L 20.79 219.07 C 20.97 218.58 21.35 217.60 21.53 217.11 C 20.23 215.89 20.07 214.40 21.07 212.64 L 18.88 214.02 C 19.19 212.93 19.81 210.76 20.12 209.67 L 17.85 210.97 C 18.17 209.90 18.81 207.76 19.13 206.69 L 16.85 207.91 C 17.18 206.81 17.85 204.59 18.18 203.49 C 17.59 203.91 16.40 204.75 15.81 205.17 C 16.15 203.98 16.84 201.61 17.18 200.42 L 14.96 201.98 C 15.29 200.13 15.66 198.28 16.08 196.45 L 13.94 198.14 C 14.28 196.23 14.65 194.34 15.07 192.45 L 12.95 194.15 C 12.79 192.49 15.98 185.35 12.08 190.08 C 12.27 188.51 12.43 186.94 12.56 185.37 L 11.35 185.74 C 11.36 184.16 11.36 182.59 11.32 181.02 C 9.50 178.55 10.41 175.08 11.06 172.38 L 9.10 174.15 C 9.40 171.53 9.26 168.85 10.03 166.30 L 8.11 168.21 C 8.45 165.26 8.13 162.23 9.01 159.35 L 7.23 160.83 C 7.45 156.99 7.03 153.09 8.10 149.34 L 6.18 151.04 C 6.53 146.75 6.13 142.44 6.57 138.16 L 5.26 140.07 C 5.74 133.15 4.59 126.09 6.11 119.28 L 4.22 120.85 C 4.73 97.91 3.71 74.95 4.74 52.03 C 5.09 49.90 3.10 46.82 5.31 45.42 C 9.07 45.07 12.87 45.33 16.57 46.06 L 15.39 44.25 C 20.50 44.69 25.77 43.63 30.76 45.08 L 28.77 43.07 C 31.72 43.36 34.72 43.19 37.60 44.01 L 36.19 42.14 C 39.00 42.30 41.82 42.43 44.57 43.10 L 42.81 41.01 C 45.39 41.26 47.96 41.57 50.49 42.13 C 50.07 41.57 49.23 40.46 48.81 39.90 C 50.78 40.25 52.74 40.65 54.70 41.08 L 52.76 38.98 C 55.06 39.30 57.38 39.44 59.63 40.02 L 57.78 38.04 C 59.49 38.24 61.20 38.42 62.91 38.58 L 62.23 37.17 C 64.34 37.35 66.48 37.40 68.52 38.02 L 66.89 36.00 C 67.80 36.15 69.62 36.46 70.53 36.61 C 70.57 36.23 70.64 35.47 70.67 35.10 C 71.89 35.34 74.31 35.82 75.53 36.07 L 73.85 33.98 C 75.02 34.17 77.34 34.56 78.50 34.75 L 77.03 33.09 C 78.85 33.31 80.66 33.63 82.45 34.02 L 80.86 31.86 C 81.99 32.18 84.23 32.81 85.36 33.13 L 84.01 30.87 C 85.07 31.18 87.19 31.81 88.25 32.12 C 87.94 31.54 87.30 30.38 86.98 29.80 C 88.09 30.14 90.30 30.84 91.41 31.18 L 89.93 28.80 C 90.59 29.06 91.91 29.56 92.57 29.81 L 92.30 28.29 C 93.16 28.35 94.89 28.46 95.76 28.52 L 94.87 26.93 C 96.40 27.32 97.92 27.73 99.44 28.16 C 99.03 27.55 98.20 26.32 97.79 25.71 C 98.50 26.01 99.92 26.61 100.63 26.91 L 99.97 25.00 C 101.07 25.28 103.26 25.84 104.36 26.12 L 102.93 23.81 C 103.70 24.12 105.24 24.72 106.00 25.03 L 104.91 22.93 C 105.60 23.15 106.97 23.59 107.65 23.81 L 106.98 21.92 C 107.66 22.15 109.03 22.61 109.72 22.85 L 109.28 21.10 C 110.27 21.35 112.25 21.85 113.24 22.10 L 112.10 19.84 C 112.90 20.21 114.51 20.94 115.31 21.30 L 114.10 18.86 C 114.90 19.22 116.51 19.95 117.31 20.31 L 116.12 17.84 C 116.90 18.21 118.48 18.94 119.26 19.31 L 118.18 16.81 C 118.90 17.18 120.34 17.91 121.06 18.27 C 119.03 15.73 122.00 14.81 123.71 15.55 L 123.02 13.93 C 123.66 14.18 124.93 14.68 125.56 14.93 L 125.31 12.91 C 125.98 13.26 127.34 13.95 128.02 14.29 C 126.20 11.91 128.75 10.98 130.44 11.47 L 130.38 9.94 C 131.05 10.28 132.39 10.96 133.06 11.30 C 130.87 8.10 134.65 8.02 136.34 9.13 L 135.06 6.80 L 137.09 7.72 C 137.20 7.29 137.43 6.42 137.54 5.99 C 138.25 6.33 139.68 7.02 140.39 7.37 L 139.13 5.08 M 139.48 36.56 L 139.59 37.87 C 138.90 37.61 137.51 37.07 136.81 36.80 L 137.73 39.00 C 136.99 38.69 135.52 38.06 134.78 37.74 L 135.70 39.96 C 134.99 39.67 133.58 39.10 132.88 38.82 L 133.65 40.83 C 132.94 40.61 131.52 40.16 130.81 39.93 L 131.73 41.26 C 130.84 41.58 129.06 42.23 128.18 42.56 C 127.86 42.50 127.21 42.38 126.89 42.32 C 126.82 42.69 126.67 43.42 126.59 43.79 C 126.15 43.66 125.26 43.40 124.81 43.28 L 124.41 44.89 C 123.79 44.60 122.55 44.03 121.92 43.74 L 122.40 45.33 C 121.60 45.64 119.99 46.26 119.19 46.57 C 118.87 46.49 118.22 46.34 117.90 46.27 C 117.78 46.66 117.55 47.43 117.43 47.82 C 116.85 47.61 115.67 47.17 115.08 46.96 L 114.79 48.65 C 114.30 48.55 113.33 48.35 112.84 48.25 C 112.76 48.64 112.59 49.42 112.51 49.81 C 111.93 49.61 110.76 49.21 110.17 49.01 L 109.70 50.66 C 109.24 50.57 108.31 50.39 107.84 50.29 C 107.80 50.58 107.70 51.14 107.65 51.42 C 106.16 51.11 104.96 51.54 104.06 52.69 C 103.59 52.51 102.65 52.15 102.18 51.96 C 102.01 52.43 101.66 53.35 101.48 53.81 C 100.99 53.61 100.00 53.19 99.51 52.98 C 98.80 54.47 97.63 54.88 95.99 54.20 L 95.63 55.68 C 94.97 55.54 93.64 55.27 92.98 55.14 C 92.87 55.53 92.64 56.32 92.53 56.71 C 91.87 56.56 90.55 56.27 89.89 56.12 C 89.80 56.52 89.64 57.33 89.56 57.73 C 88.68 57.54 86.91 57.16 86.03 56.97 L 85.76 58.69 C 85.06 58.53 83.66 58.22 82.96 58.07 C 82.85 58.48 82.64 59.29 82.53 59.70 C 81.65 59.53 79.90 59.19 79.03 59.02 L 78.69 60.69 C 77.99 60.56 76.58 60.30 75.87 60.18 C 75.79 60.55 75.64 61.29 75.57 61.67 C 74.65 61.54 72.81 61.27 71.89 61.14 C 71.82 61.51 71.68 62.24 71.61 62.61 C 70.66 62.50 68.78 62.29 67.83 62.18 C 67.78 62.52 67.68 63.21 67.62 63.55 C 66.65 63.49 64.70 63.36 63.72 63.29 C 63.67 63.60 63.58 64.21 63.53 64.51 C 62.14 64.45 60.76 64.40 59.37 64.34 C 58.00 65.76 55.98 65.35 54.22 65.45 C 52.34 67.04 49.84 66.30 47.63 66.18 L 47.95 67.37 C 46.03 67.39 44.11 67.39 42.19 67.43 C 39.75 68.79 36.94 68.39 34.27 68.33 C 32.78 69.43 30.95 69.46 29.18 69.42 C 29.38 85.37 29.29 101.32 29.15 117.27 C 30.23 121.75 30.19 126.45 30.32 131.04 C 30.52 134.70 29.53 138.54 31.07 142.02 C 31.54 145.77 31.16 149.54 31.21 153.30 C 32.71 155.75 32.18 158.60 32.22 161.32 C 33.55 163.53 33.40 166.07 33.10 168.53 C 35.03 169.96 34.12 172.45 34.10 174.46 C 35.83 175.71 35.11 177.75 35.10 179.50 C 36.89 181.66 36.53 184.94 37.29 187.60 C 38.63 188.73 38.19 190.45 38.10 191.98 L 39.54 192.28 C 39.42 192.82 39.20 193.90 39.09 194.44 C 40.91 195.55 40.08 197.55 39.97 199.26 L 41.53 198.45 C 41.37 199.39 41.04 201.27 40.87 202.22 L 42.29 201.52 C 42.26 203.40 43.05 205.14 43.27 206.99 L 44.51 207.09 C 44.35 207.87 44.03 209.43 43.87 210.21 L 45.78 209.45 C 45.52 210.08 45.01 211.34 44.75 211.97 L 46.44 211.88 C 46.33 212.41 46.12 213.47 46.01 213.99 L 47.45 214.07 C 47.34 214.66 47.13 215.84 47.02 216.43 C 48.46 217.53 49.94 218.73 49.14 220.77 C 49.75 221.18 50.96 221.99 51.56 222.40 C 51.38 222.82 51.02 223.67 50.84 224.09 L 52.70 223.81 C 52.46 224.37 51.99 225.50 51.75 226.07 L 53.24 225.76 C 52.62 229.23 57.49 230.76 57.07 234.05 L 58.13 233.81 C 57.91 236.57 61.48 237.37 61.27 240.03 L 61.50 240.05 C 62.49 240.84 63.50 241.60 64.52 242.35 C 64.38 242.66 64.09 243.27 63.95 243.58 C 65.32 244.78 66.69 245.99 68.09 247.18 C 68.40 248.41 69.00 249.51 69.85 250.47 L 70.05 250.62 C 75.85 255.77 81.27 261.33 86.49 267.08 L 88.09 265.97 L 86.82 268.12 C 87.25 267.98 88.09 267.71 88.52 267.57 C 89.31 268.54 90.13 269.51 90.96 270.45 L 91.04 271.13 C 91.44 270.96 92.23 270.64 92.63 270.48 C 93.38 271.50 94.16 272.50 94.97 273.49 L 95.00 273.95 C 96.75 273.04 97.49 274.43 98.18 275.83 C 99.77 275.25 100.45 276.68 101.26 277.77 C 102.92 277.36 103.53 279.03 104.42 280.06 C 104.93 279.85 105.95 279.42 106.46 279.20 L 105.94 280.97 C 106.76 282.24 111.18 280.58 108.80 283.08 C 110.73 281.92 111.53 283.54 112.30 285.07 C 112.82 284.87 113.85 284.48 114.37 284.28 L 113.97 285.96 C 114.93 287.50 119.81 285.20 116.73 288.25 C 117.40 288.02 118.74 287.55 119.41 287.31 L 118.87 289.18 C 119.45 288.98 120.61 288.59 121.18 288.40 L 121.04 289.67 C 123.40 289.39 124.01 293.08 126.52 291.57 L 125.80 293.24 C 126.42 293.00 127.68 292.54 128.31 292.31 L 127.91 294.18 C 128.49 293.97 129.64 293.55 130.22 293.35 L 129.97 295.18 C 130.53 294.99 131.65 294.61 132.21 294.42 L 131.93 296.10 C 132.50 295.90 133.64 295.51 134.21 295.32 L 133.95 297.07 C 134.32 296.92 135.08 296.62 135.45 296.47 C 136.56 297.89 137.55 299.96 139.70 298.39 L 138.79 300.09 C 139.59 299.95 141.17 299.65 141.96 299.51 L 142.22 298.33 C 142.64 298.47 143.49 298.73 143.91 298.86 L 144.12 297.37 C 144.57 297.48 145.48 297.71 145.94 297.82 L 146.07 296.33 C 146.58 296.51 147.60 296.87 148.11 297.04 L 147.55 295.21 C 148.19 295.43 149.45 295.85 150.09 296.07 L 149.52 294.14 C 150.17 294.39 151.48 294.90 152.14 295.15 L 151.46 293.04 C 152.13 293.35 153.48 293.99 154.15 294.31 L 153.45 292.06 C 154.17 292.37 155.59 292.98 156.30 293.28 L 155.28 290.86 C 155.83 291.18 156.95 291.81 157.50 292.13 C 158.41 290.84 159.08 288.96 161.10 289.53 L 160.64 288.19 C 161.27 288.43 162.51 288.91 163.14 289.15 L 162.44 287.04 C 163.13 287.36 164.51 288.00 165.20 288.32 L 164.38 285.97 C 164.98 286.26 166.19 286.86 166.80 287.16 C 167.32 285.17 168.06 283.57 170.20 285.18 L 169.44 282.99 C 170.03 283.28 171.21 283.86 171.80 284.15 C 172.31 282.08 173.18 280.67 175.33 282.20 L 174.10 279.87 L 176.14 281.11 L 175.51 278.93 C 176.07 279.25 177.18 279.88 177.74 280.20 C 178.39 278.73 178.73 276.47 180.70 277.99 C 181.56 276.76 182.44 275.56 183.30 274.33 L 184.55 275.13 C 185.50 273.82 186.48 272.54 187.44 271.25 L 188.52 272.18 C 189.77 270.63 191.03 269.09 192.20 267.49 C 192.74 267.68 193.81 268.06 194.35 268.25 L 192.88 265.76 L 194.54 267.09 C 199.74 261.28 205.10 255.57 211.02 250.47 L 209.71 248.79 L 211.54 250.09 C 211.90 249.70 212.63 248.91 212.99 248.51 L 213.02 248.00 L 213.82 248.00 C 212.91 245.13 216.65 244.28 218.13 242.55 L 217.33 241.38 C 218.75 240.32 220.13 239.20 221.46 238.01 L 222.06 238.04 C 220.72 236.12 222.23 235.42 223.94 234.86 C 222.89 233.05 224.54 232.42 225.95 231.75 C 224.71 229.87 226.83 229.40 228.15 228.64 C 227.87 228.11 227.31 227.06 227.02 226.53 L 228.64 227.13 C 227.89 225.06 229.80 224.46 231.08 223.59 C 230.82 223.07 230.29 222.03 230.03 221.51 L 232.24 222.16 C 231.97 221.51 231.42 220.22 231.14 219.57 L 233.12 220.06 C 232.91 219.47 232.50 218.29 232.29 217.70 L 234.06 218.03 C 233.90 217.50 233.59 216.43 233.43 215.90 L 235.09 215.91 C 234.88 215.35 234.48 214.24 234.27 213.69 L 236.24 214.10 C 235.96 213.45 235.41 212.14 235.14 211.49 L 237.20 212.14 C 237.02 211.57 236.66 210.44 236.48 209.88 C 237.58 208.96 237.92 207.81 237.50 206.43 L 239.21 207.28 C 239.03 206.68 238.66 205.48 238.48 204.88 C 239.48 204.10 239.92 203.09 239.82 201.84 C 240.30 200.91 240.67 199.93 240.93 198.92 C 241.48 197.47 241.91 195.98 242.59 194.58 C 242.49 193.35 242.90 192.35 243.82 191.56 C 243.91 190.19 243.17 188.45 244.79 187.60 C 244.92 186.19 244.01 184.28 245.89 183.55 C 245.67 181.79 245.34 179.87 246.78 178.51 C 246.73 176.76 246.23 174.76 247.86 173.53 C 247.75 171.48 247.17 169.14 248.83 167.52 C 248.82 164.83 247.94 161.77 249.84 159.48 C 249.77 156.93 249.33 154.31 250.02 151.81 C 251.50 147.62 250.16 143.12 250.83 138.81 C 252.58 129.29 251.17 119.56 251.75 109.95 C 252.84 96.52 251.86 83.00 252.39 69.54 C 250.83 69.41 249.24 69.25 247.85 68.44 C 245.38 68.43 242.91 68.41 240.43 68.40 L 240.51 67.36 C 238.13 67.44 235.75 67.47 233.38 67.49 C 233.41 67.22 233.47 66.67 233.50 66.40 C 231.50 66.45 229.52 66.45 227.53 66.45 C 227.52 66.18 227.49 65.63 227.47 65.36 C 225.81 65.42 224.16 65.46 222.50 65.50 L 222.51 64.37 C 221.48 64.42 219.43 64.50 218.40 64.55 C 218.37 64.22 218.29 63.57 218.26 63.24 C 217.27 63.34 215.29 63.53 214.30 63.63 C 214.26 63.25 214.18 62.49 214.14 62.11 C 213.20 62.25 211.34 62.54 210.41 62.69 C 210.33 62.31 210.16 61.55 210.07 61.17 C 209.14 61.29 207.28 61.53 206.35 61.66 C 206.31 61.29 206.22 60.55 206.18 60.18 C 205.22 60.29 203.31 60.52 202.35 60.64 C 202.34 60.31 202.34 59.65 202.33 59.32 C 201.31 59.38 199.27 59.50 198.25 59.57 L 198.61 58.39 C 197.93 58.41 196.57 58.46 195.89 58.48 C 194.90 57.52 193.69 57.16 192.27 57.40 C 192.21 57.07 192.10 56.41 192.05 56.09 C 191.38 56.25 190.04 56.56 189.38 56.72 L 188.95 55.02 C 188.34 55.20 187.11 55.57 186.50 55.76 C 186.31 55.30 185.93 54.40 185.74 53.95 C 185.20 54.17 184.11 54.62 183.57 54.84 C 183.38 54.36 183.00 53.40 182.81 52.92 C 182.24 53.14 181.12 53.59 180.56 53.82 C 180.36 53.36 179.96 52.44 179.77 51.98 C 179.31 52.16 178.39 52.50 177.93 52.67 C 177.03 51.58 175.85 51.14 174.40 51.37 C 174.35 51.09 174.26 50.53 174.22 50.25 C 173.74 50.35 172.78 50.56 172.30 50.67 L 171.80 49.05 C 171.23 49.24 170.11 49.63 169.55 49.83 C 169.44 49.43 169.23 48.64 169.13 48.25 C 168.66 48.36 167.73 48.58 167.27 48.69 L 166.95 46.99 C 166.33 47.19 165.09 47.61 164.47 47.82 C 164.39 47.43 164.22 46.67 164.14 46.29 C 163.44 46.37 162.06 46.55 161.36 46.64 L 162.14 44.88 C 161.44 45.15 160.06 45.70 159.36 45.98 L 160.27 43.70 C 159.60 43.99 158.25 44.58 157.58 44.88 C 157.46 44.47 157.23 43.65 157.11 43.24 C 156.79 43.32 156.16 43.49 155.84 43.58 C 155.00 43.22 153.33 42.52 152.49 42.17 L 152.99 40.94 C 152.34 41.18 151.04 41.65 150.39 41.88 L 151.10 39.90 C 150.42 40.15 149.07 40.65 148.40 40.90 L 149.13 38.83 C 148.42 39.11 147.00 39.68 146.29 39.96 L 147.15 37.82 C 146.43 38.11 145.00 38.68 144.28 38.96 L 145.14 36.86 C 144.43 37.13 143.01 37.66 142.30 37.92 L 143.14 36.16 C 141.92 36.31 140.70 36.44 139.48 36.56 Z" />
<path fill="#efefef" opacity="1.00" d=" M 133.18 69.53 C 137.32 69.37 141.47 69.07 145.59 69.75 L 144.78 71.00 L 146.00 71.00 L 146.01 72.00 L 147.00 72.00 L 147.00 72.91 L 148.53 72.86 C 148.40 73.30 148.15 74.17 148.02 74.61 C 149.14 75.50 150.69 76.25 150.12 77.95 L 151.03 78.02 C 150.74 80.22 153.82 80.91 153.09 83.17 L 154.68 82.43 C 154.45 83.14 153.99 84.55 153.76 85.26 L 155.69 84.04 L 154.81 86.21 L 156.57 85.54 C 154.61 88.03 158.97 88.58 158.12 91.04 L 159.23 90.80 C 158.17 93.30 162.29 93.65 161.03 96.12 L 162.44 95.62 C 160.89 98.13 165.01 98.69 164.09 101.13 L 165.43 100.56 C 163.65 103.28 168.57 103.56 166.95 106.18 L 168.26 105.59 C 167.13 108.28 171.28 108.43 170.02 110.72 C 171.56 111.49 173.05 112.34 171.96 114.25 L 174.03 113.39 C 173.76 113.89 173.21 114.88 172.93 115.38 C 173.30 115.77 174.03 116.56 174.39 116.95 L 175.80 116.71 C 175.58 117.21 175.13 118.22 174.91 118.72 C 175.83 119.28 176.75 119.83 177.68 120.38 L 176.87 121.51 C 179.31 122.51 179.09 125.50 181.61 126.42 L 180.83 127.69 C 181.53 128.06 182.93 128.81 183.63 129.18 C 183.45 129.52 183.11 130.18 182.93 130.52 C 185.07 131.56 185.31 134.08 187.14 135.44 C 187.12 135.87 187.08 136.73 187.05 137.16 L 188.80 136.44 C 188.54 137.15 188.01 138.57 187.75 139.29 L 189.82 138.00 L 188.78 140.18 L 190.76 139.66 C 190.49 140.30 189.96 141.58 189.69 142.22 L 191.46 141.41 C 189.68 144.21 194.79 144.57 192.89 147.14 L 194.73 146.63 C 194.49 147.26 194.01 148.53 193.77 149.16 L 195.82 148.51 C 195.55 149.18 195.01 150.51 194.74 151.18 L 196.80 150.48 C 196.54 151.16 196.00 152.52 195.74 153.20 L 197.86 152.40 C 197.58 153.09 197.02 154.46 196.74 155.14 L 198.75 154.55 C 198.50 155.22 198.01 156.57 197.76 157.25 L 199.37 156.59 C 198.99 157.95 199.36 159.06 200.47 159.91 C 200.32 160.44 200.02 161.50 199.87 162.03 L 201.49 161.87 C 201.35 162.66 201.07 164.25 200.93 165.05 L 202.57 164.75 C 202.41 165.55 202.11 167.16 201.96 167.96 L 203.54 168.19 C 203.43 168.77 203.22 169.94 203.11 170.53 C 204.90 171.69 204.21 173.81 204.20 175.59 C 205.79 176.71 205.19 178.68 205.42 180.33 C 207.00 186.05 206.32 192.07 206.19 197.93 C 204.54 199.82 205.62 202.42 205.43 204.66 C 205.12 204.68 204.51 204.72 204.20 204.74 C 204.26 205.54 204.37 207.16 204.43 207.97 C 203.69 208.89 203.23 209.93 203.05 211.10 C 202.71 212.10 202.39 213.10 202.10 214.12 C 201.59 215.15 201.31 216.24 201.26 217.40 L 199.75 216.72 C 200.02 217.41 200.56 218.78 200.83 219.47 L 198.75 218.85 C 199.02 219.50 199.56 220.80 199.83 221.45 L 197.74 220.85 C 198.03 221.50 198.59 222.82 198.87 223.47 L 196.77 222.85 C 197.02 223.47 197.53 224.72 197.79 225.34 L 196.22 224.96 C 197.47 226.99 195.10 227.40 194.09 228.33 C 195.25 230.20 193.05 230.60 191.81 231.38 L 192.69 232.62 C 190.61 234.06 188.72 235.75 186.88 237.48 L 188.16 239.12 L 185.82 237.77 C 186.00 238.23 186.35 239.14 186.52 239.59 C 185.53 240.52 184.58 241.48 183.65 242.48 C 183.16 242.30 182.18 241.94 181.69 241.76 L 183.08 244.25 L 181.35 242.84 C 180.48 244.10 179.60 245.35 178.79 246.66 C 178.37 246.43 177.52 245.99 177.09 245.77 C 176.88 246.56 176.44 248.15 176.22 248.95 C 175.72 248.65 174.71 248.04 174.21 247.74 C 173.95 248.49 173.44 249.97 173.19 250.71 C 172.62 250.50 171.48 250.08 170.91 249.87 L 171.61 251.92 C 170.92 251.62 169.54 251.02 168.85 250.72 L 169.62 252.94 C 168.89 252.63 167.44 252.03 166.71 251.73 L 167.65 253.98 C 166.94 253.68 165.52 253.08 164.81 252.78 L 165.68 254.35 C 164.23 254.19 163.03 254.63 162.09 255.66 C 161.58 255.51 160.56 255.21 160.05 255.06 L 159.67 256.72 C 158.97 256.57 157.56 256.27 156.86 256.12 C 156.84 256.49 156.79 257.25 156.77 257.62 C 155.90 257.56 154.15 257.44 153.27 257.38 L 153.62 258.43 C 150.79 258.48 147.84 258.22 145.19 259.42 C 142.21 259.45 139.22 259.44 136.23 259.51 L 136.64 258.73 C 133.89 258.45 131.13 258.39 128.37 258.50 C 128.33 258.17 128.27 257.53 128.23 257.20 C 127.25 257.31 125.27 257.54 124.29 257.65 C 124.24 257.26 124.15 256.50 124.11 256.12 C 123.44 256.27 122.10 256.57 121.43 256.72 L 120.88 255.02 C 120.37 255.18 119.34 255.51 118.83 255.68 C 118.43 253.21 113.46 256.06 116.17 252.72 C 115.47 253.04 114.06 253.69 113.36 254.01 L 114.22 251.70 C 113.49 252.03 112.03 252.68 111.30 253.00 L 112.24 250.71 C 111.54 251.02 110.12 251.63 109.41 251.93 L 110.13 249.71 C 109.47 250.03 108.17 250.65 107.52 250.96 L 108.15 248.85 L 106.07 250.14 L 107.34 247.64 C 106.60 247.97 105.11 248.64 104.37 248.97 L 105.28 246.72 L 102.95 247.94 L 104.36 245.81 C 102.05 247.52 101.24 245.06 100.09 243.50 L 99.94 242.84 L 98.45 243.57 C 96.58 241.43 94.56 239.41 92.40 237.57 L 93.17 236.05 L 92.43 235.95 C 91.23 234.75 89.92 233.67 88.47 232.78 C 88.68 232.25 89.09 231.20 89.29 230.67 L 86.71 232.09 L 88.17 230.35 C 86.87 229.59 84.82 229.13 85.93 227.26 C 84.36 226.56 82.99 225.71 84.03 223.85 L 82.17 224.47 C 82.44 223.80 82.99 222.46 83.26 221.80 L 81.06 222.60 C 81.32 222.06 81.85 220.97 82.11 220.43 C 81.17 219.76 80.24 219.09 79.32 218.41 C 79.55 217.78 80.01 216.50 80.24 215.86 L 78.20 216.49 C 78.46 215.81 78.98 214.45 79.23 213.76 L 77.31 214.43 C 77.52 213.50 77.94 211.64 78.15 210.71 L 76.65 211.59 C 76.58 209.47 75.95 207.44 75.61 205.36 C 74.64 204.19 74.62 202.67 74.48 201.24 C 73.06 198.62 74.00 195.59 73.63 192.78 C 73.19 189.65 72.96 186.43 73.65 183.32 C 73.79 180.72 73.08 177.84 74.74 175.58 C 74.68 174.76 74.56 173.12 74.51 172.30 C 74.86 172.22 75.56 172.08 75.91 172.00 C 75.26 169.54 76.20 167.25 76.86 164.93 C 77.25 163.94 77.63 162.95 77.98 161.96 C 78.34 160.81 78.58 159.64 78.71 158.45 L 80.18 159.27 C 80.00 158.71 79.63 157.59 79.44 157.03 C 80.01 156.12 80.47 155.16 80.84 154.15 L 81.83 153.96 C 81.69 153.35 81.42 152.13 81.28 151.52 L 83.12 152.07 C 82.87 151.43 82.36 150.15 82.10 149.51 L 84.22 150.17 C 83.94 149.53 83.40 148.24 83.13 147.60 L 85.01 148.03 C 84.83 147.45 84.45 146.30 84.26 145.72 L 85.47 146.05 C 85.17 144.13 86.73 143.31 88.13 142.49 C 87.80 141.93 87.16 140.83 86.84 140.27 L 89.29 141.26 C 89.00 140.56 88.41 139.16 88.12 138.46 L 90.02 139.01 C 89.85 138.50 89.53 137.48 89.36 136.97 C 90.07 136.66 91.49 136.05 92.19 135.74 C 91.88 135.15 91.25 133.96 90.93 133.37 L 93.23 134.22 C 92.99 133.57 92.51 132.28 92.26 131.63 L 93.78 132.11 L 92.96 130.35 L 95.34 131.21 C 95.00 130.49 94.33 129.04 93.99 128.31 L 96.17 129.15 C 95.96 128.59 95.54 127.48 95.33 126.92 C 96.05 126.64 97.48 126.08 98.19 125.80 C 97.86 125.18 97.21 123.93 96.88 123.30 L 99.06 124.25 C 97.76 122.17 99.34 121.33 101.15 120.67 C 100.84 120.08 100.23 118.91 99.92 118.32 L 102.09 119.07 C 101.90 118.52 101.52 117.42 101.33 116.87 C 102.05 116.60 103.48 116.06 104.20 115.79 C 103.88 115.19 103.25 113.99 102.93 113.39 L 105.11 114.10 C 104.93 113.57 104.56 112.51 104.38 111.98 C 105.08 111.67 106.48 111.06 107.19 110.76 C 106.85 110.12 106.19 108.85 105.86 108.22 L 108.20 109.26 C 107.95 108.57 107.44 107.20 107.19 106.51 L 109.12 106.87 L 108.30 105.41 C 108.67 105.30 109.41 105.07 109.78 104.95 L 108.84 103.19 L 111.21 104.29 C 110.97 103.60 110.50 102.22 110.26 101.53 L 112.11 101.83 L 111.26 100.48 C 111.66 100.36 112.45 100.13 112.84 100.02 L 111.90 98.28 L 114.12 99.12 C 113.94 98.58 113.58 97.49 113.40 96.94 C 114.04 96.67 115.33 96.13 115.98 95.86 C 114.69 93.84 116.53 93.28 118.16 92.70 C 117.86 92.10 117.25 90.90 116.94 90.30 L 119.08 91.09 C 118.91 90.55 118.57 89.48 118.39 88.95 C 119.09 88.64 120.47 88.04 121.16 87.74 C 120.87 87.15 120.29 85.98 120.00 85.40 L 121.39 86.06 C 121.23 84.27 122.56 83.38 123.93 82.62 C 122.69 80.70 124.74 80.32 126.15 79.70 C 125.87 79.09 125.31 77.86 125.03 77.25 L 127.02 78.03 L 126.25 76.51 C 126.67 76.37 127.51 76.09 127.93 75.95 L 126.88 74.64 C 130.58 75.53 129.35 70.20 133.00 70.44 L 133.18 69.53 M 135.70 109.54 L 133.78 108.79 L 134.97 110.99 L 132.68 109.71 C 133.00 110.42 133.63 111.83 133.95 112.54 L 131.75 111.78 L 133.03 113.99 L 130.70 112.64 C 131.00 113.36 131.62 114.81 131.92 115.54 L 129.75 114.85 C 129.97 115.37 130.40 116.40 130.61 116.91 C 129.91 117.26 128.51 117.95 127.81 118.29 C 128.12 118.83 128.74 119.93 129.05 120.47 L 127.06 119.84 C 127.61 124.07 127.35 128.34 127.12 132.58 C 127.49 132.91 128.23 133.56 128.60 133.88 C 128.42 134.41 128.05 135.45 127.87 135.97 L 129.54 136.11 C 129.42 136.54 129.18 137.40 129.07 137.84 C 129.46 137.93 130.23 138.11 130.62 138.19 L 129.87 139.73 L 131.07 140.05 C 130.70 141.86 132.33 142.52 133.58 143.31 C 133.39 143.78 133.03 144.70 132.85 145.17 L 135.05 143.87 L 133.92 145.47 C 134.79 146.33 135.66 147.20 136.51 148.08 L 137.99 146.72 L 136.70 149.29 L 139.36 148.12 L 137.79 149.91 C 138.89 150.20 140.00 150.47 141.11 150.72 C 141.39 151.34 141.95 152.59 142.24 153.21 L 143.93 152.28 C 144.35 153.23 144.77 154.19 145.21 155.14 C 145.77 154.87 146.90 154.33 147.46 154.06 L 146.85 156.11 C 148.89 154.65 149.60 156.42 150.27 158.13 C 150.84 157.85 151.98 157.30 152.56 157.02 L 151.81 159.27 C 152.48 158.98 153.82 158.39 154.49 158.09 L 153.85 160.29 C 154.48 160.01 155.75 159.44 156.38 159.15 L 155.93 161.08 C 156.31 160.91 157.07 160.58 157.45 160.42 C 158.57 162.02 159.71 163.95 161.85 162.20 L 160.63 164.28 C 161.37 164.00 162.83 163.46 163.57 163.19 L 162.79 165.13 C 164.80 163.70 165.56 165.43 166.28 167.11 C 166.84 166.85 167.96 166.33 168.52 166.07 L 167.93 167.98 C 169.13 168.47 170.37 168.71 171.67 168.72 L 170.86 169.51 C 171.29 169.88 172.14 170.63 172.57 171.01 C 172.80 170.87 173.27 170.58 173.50 170.44 C 174.47 171.68 175.47 172.89 176.45 174.13 L 178.24 172.68 L 176.79 174.93 C 177.42 175.00 178.67 175.14 179.29 175.21 C 180.18 176.60 181.07 177.99 182.13 179.27 C 181.17 176.54 179.37 174.00 179.72 170.98 L 178.92 170.99 C 178.63 169.92 178.18 168.92 177.57 168.00 C 177.72 167.47 178.03 166.40 178.19 165.87 L 176.20 166.50 C 176.46 165.84 176.98 164.53 177.24 163.87 L 175.25 164.40 C 175.49 163.77 175.97 162.53 176.21 161.90 L 174.25 162.33 C 174.46 161.72 174.88 160.49 175.08 159.87 L 173.16 160.34 C 173.42 159.72 173.93 158.48 174.19 157.86 L 172.12 158.41 C 172.41 157.78 173.00 156.52 173.29 155.89 L 171.16 156.41 C 171.43 155.76 171.98 154.46 172.26 153.81 L 170.07 154.56 C 170.34 153.97 170.89 152.79 171.16 152.20 C 169.57 151.58 167.44 151.17 169.07 149.19 C 168.38 148.88 167.01 148.26 166.32 147.95 C 166.53 147.53 166.95 146.70 167.16 146.29 C 166.47 145.95 165.10 145.28 164.41 144.94 C 164.62 144.38 165.04 143.25 165.25 142.69 L 163.45 143.66 C 163.73 142.35 163.57 141.10 162.95 139.90 L 161.16 140.59 C 161.43 139.87 161.98 138.42 162.25 137.69 L 160.14 139.10 L 161.29 136.68 L 159.41 137.66 C 160.41 135.34 158.49 133.91 156.77 132.84 C 157.48 130.96 155.37 130.48 154.28 129.55 L 155.19 128.39 C 154.49 128.01 153.07 127.24 152.36 126.86 C 152.56 126.36 152.96 125.38 153.15 124.88 L 150.95 125.51 C 151.26 124.94 151.90 123.79 152.21 123.21 C 150.60 122.58 148.32 122.20 150.09 120.18 C 148.62 119.56 146.45 119.21 148.02 117.31 C 146.66 116.58 144.92 115.96 145.91 114.13 C 145.27 113.83 144.00 113.24 143.36 112.94 C 143.58 112.42 144.03 111.38 144.25 110.87 L 142.18 111.48 C 142.45 110.76 142.99 109.33 143.26 108.62 L 140.86 110.00 L 142.16 107.86 L 140.34 108.43 C 142.13 105.88 140.04 105.65 137.99 105.59 C 138.33 104.97 139.03 103.72 139.37 103.09 C 138.16 105.26 133.90 106.63 135.70 109.54 M 107.97 152.64 C 108.13 152.96 108.46 153.61 108.63 153.93 C 106.89 154.60 104.98 155.45 106.61 157.64 L 104.73 156.76 C 104.99 157.44 105.52 158.80 105.78 159.47 L 103.76 158.86 C 104.00 159.50 104.48 160.79 104.72 161.44 L 102.76 160.87 C 103.00 161.52 103.48 162.83 103.72 163.48 L 101.85 162.89 C 101.98 163.45 102.24 164.58 102.36 165.14 C 101.24 166.02 100.92 167.16 101.41 168.54 L 99.88 167.78 C 100.04 168.69 100.37 170.52 100.54 171.43 L 99.05 170.81 C 99.11 172.42 99.69 174.28 98.19 175.46 C 98.32 177.22 98.47 179.10 97.15 180.50 C 97.25 186.16 97.40 191.83 97.15 197.49 C 98.53 199.09 97.91 201.47 99.34 203.05 C 99.24 203.84 99.04 205.41 98.95 206.20 L 100.54 205.51 C 100.38 206.44 100.05 208.28 99.89 209.20 L 101.43 208.21 C 100.22 210.59 103.05 211.79 103.26 213.96 L 104.47 213.87 C 104.35 214.35 104.10 215.30 103.98 215.77 C 104.60 216.17 105.83 216.96 106.45 217.36 C 106.32 217.76 106.04 218.58 105.90 218.99 L 106.60 219.01 C 108.90 221.21 111.28 223.35 113.39 225.75 C 114.78 227.20 116.05 229.22 118.38 228.82 L 117.81 230.15 C 118.36 230.00 119.44 229.70 119.99 229.54 L 120.09 230.83 C 120.37 230.80 120.91 230.75 121.19 230.73 C 121.89 231.06 123.29 231.72 123.99 232.05 L 123.97 233.07 C 124.68 232.92 126.11 232.60 126.83 232.44 L 127.01 233.90 C 128.80 233.72 130.83 233.26 132.30 234.65 C 137.74 234.01 143.67 235.75 148.80 233.61 C 149.49 233.61 150.87 233.62 151.56 233.62 L 151.23 232.76 C 152.66 232.82 153.90 232.39 154.93 231.46 C 155.49 231.64 156.62 231.98 157.18 232.15 L 156.17 230.12 C 156.91 230.39 158.38 230.91 159.12 231.18 L 158.07 229.31 C 158.85 229.52 160.41 229.93 161.19 230.13 L 160.14 228.76 C 160.86 228.48 162.30 227.92 163.02 227.64 L 163.39 227.89 C 164.33 226.84 165.31 225.82 166.28 224.80 C 167.74 225.32 168.28 224.85 167.90 223.39 C 169.79 221.52 171.10 219.18 173.03 217.35 C 172.87 217.00 172.56 216.30 172.40 215.95 C 172.70 215.64 173.30 215.01 173.60 214.70 C 173.31 211.16 174.69 207.04 172.61 203.92 C 172.71 203.43 172.91 202.46 173.00 201.97 L 171.41 202.24 C 171.59 201.65 171.94 200.47 172.12 199.88 L 170.25 200.46 C 170.48 199.84 170.95 198.62 171.18 198.01 L 170.38 198.00 C 168.63 196.16 166.84 194.37 165.00 192.62 L 164.99 191.85 C 164.56 192.02 163.71 192.37 163.28 192.54 C 162.42 191.34 161.54 190.16 160.67 188.97 C 158.06 191.13 158.54 184.88 155.43 187.62 L 156.16 185.77 L 153.57 186.74 C 153.69 186.44 153.93 185.83 154.05 185.53 C 151.62 185.77 151.02 181.74 148.44 183.60 L 149.20 181.75 C 148.54 182.01 147.22 182.52 146.56 182.77 L 147.10 180.77 C 146.47 181.02 145.23 181.53 144.61 181.79 L 145.18 180.46 C 142.47 181.17 141.99 176.11 139.29 178.85 L 140.26 176.77 C 139.74 176.96 138.69 177.33 138.17 177.52 C 137.36 175.97 136.56 174.05 134.44 175.58 L 135.07 174.23 C 132.59 175.07 131.95 172.07 130.48 170.87 C 130.09 171.12 129.32 171.61 128.93 171.85 C 128.67 171.09 128.16 169.57 127.90 168.81 C 127.52 169.00 126.77 169.37 126.40 169.55 C 124.92 167.73 123.38 165.96 121.78 164.25 C 121.52 164.01 120.99 163.54 120.72 163.30 C 119.99 162.51 119.27 161.72 118.55 160.92 L 116.87 162.12 L 118.10 160.39 C 116.55 159.13 115.00 157.85 113.42 156.63 L 114.19 155.19 C 113.46 154.91 112.02 154.35 111.29 154.07 C 111.48 153.72 111.85 153.02 112.03 152.67 C 111.35 151.94 110.68 151.19 110.04 150.43 C 109.36 151.18 108.67 151.92 107.97 152.64 Z" />
</g>
</svg>
